# xmcd
#
# Track frame offsets:
# 183
# 16833
# 48883
# 68633
#
# Disc length: 1199 seconds
#
# Revision: 5
# Processed by: cddbd v1.5.1PL2 Copyright (c) Steve Scherf et al.
# Submitted via: Axialis_AX_CDPlayer 2.6
#
DISCID=2504ad04
DTITLE=Eric Clapton - Derek and The Dominos
DYEAR=1988
DGENRE=Pop
TTITLE0=Wonderful Tonight
TTITLE1=Layla (Full Version)
TTITLE2=I Shot The Sheriff
TTITLE3=Wonderful Tonight [live version]
EXTD=Cd single YEAR: 1988
EXTT0=
EXTT1=
EXTT2=
EXTT3=
PLAYORDER=
